Cover Page 
 
http://freeimage.uphero.com/?v=nglxkiwuj.jpg


Rise Of The Apes 2011 TS - PRESTiGE


Screen Shorts 
 
http://freeimage.uphero.com/?v=3405536398.png
 
http://freeimage.uphero.com/?v=4645327757.png
 
http://freeimage.uphero.com/?v=0187558589.png






 File size : 704 MiB
 Duration : 1h 37mn
 Overall bit rate : 1 005 Kbps


 Video
 ID : 0
 Format : MPEG-4 Visual
 Format profile : Advanced Simple@L5
 Format settings, BVOP : 2
 Format settings, QPel : No
 Format settings, GMC : No warppoints
 Format settings, Matrix : Default (H.263)
 Muxing mode : Packed bitstream
 Codec ID : XVID
 Codec ID/Hint : XviD
 Duration : 1h 37mn
 Bit rate : 803 Kbps
 Width : 720 pixels
 Height : 320 pixels
 Display aspect ratio : 2.25:1
 Frame rate : 25.000 fps
 Color space : YUV
 Chroma subsampling : 4:2:0
 Bit depth : 8 bits
 Scan type : Progressive
 Compression mode : Lossy
 Bits/(Pixel*Frame) : 0.139
 Stream size : 563 MiB (80%)
 Writing library : XviD 64

 Audio
 ID : 1
 Format : AC-3
 Format/Info : Audio Coding 3
 Mode extension : CM (complete main)
 Codec ID : 2000
 Duration : 1h 37mn
 Bit rate mode : Constant
 Bit rate : 192 Kbps
 Channel(s) : 2 channels
 Channel positions : Front: L R
 Sampling rate : 48.0 KHz
 Bit depth : 16 bits
 Compression mode : Lossy
 Stream size : 135 MiB (19%)
 Alignment : Split accross interleaves
 Interleave, duration : 40 ms (1.00 video frame)
 Interleave, preload duration : 500 ms

 special mention for imagine for all work done 
 
http://www.imdb.com/title/tt1318514/